<svg xmlns="http://www.w3.org/2000/svg" width="345" height="533">
    <style>
        <![CDATA[.J{image-rendering:optimizeQuality}.K{shape-rendering:geometricPrecision}.L{text-rendering:geometricPrecision}.M{fill-rule:evenodd}]]></style>
    <g fill="#43a047" class="L M J K">
        <path d="M309.77 474.642l.076 1.776c0 31.521-60.699 57.033-135.534 57.033S38.816 507.939 38.816 476.418c0-.529 0-1.058.038-1.587l3.968-114.293c87.95 34.129 175.446 33.827 262.413-.038z"/>
        <path d="M43.616 327.92l-.945 37.002c90.104 36.397 186.293 38.324 262.753.302-.302-12.057-1.058-28.838-1.89-40.857-87.307 28.422-173.934 28.951-259.805 1.512z"/>
    </g>
    <path d="M172.498 246.849c95.282 0 172.498 19.767 172.498 48.34 0 28.535-77.216 51.704-172.498 51.704S0 323.725 0 295.19c0-28.573 77.216-48.34 172.498-48.34z"
          fill="#245626" class="J K L M"/>
    <path d="M270.35 305.054c4.384-1.285 8.542-2.646 12.359-4.157 1.965-.794 3.704-1.663 5.216-2.532-.68-5.745-3.25-15.269 3.25-18.142 2.608-.68 5.254-.983 7.937-1.209-1.625-3.628-3.666-7.408-7.408-9.184-3.099-1.776-6.728-1.814-10.167-2.079 2.117-3.213 4.838-6.765 8.882-7.37 1.928-1.02 4.611-1.285 5.858-3.213-5.518-6.501-14.324-7.861-22.413-7.143.378-4.913 3.628-8.957 7.294-11.981-6.312-3.817-14.287-4.195-21.09-1.436-6.576-10.62-13.342-21.279-21.808-30.539-1.739-2.117-4.157-3.628-5.291-6.085 12.888-19.465 25.625-39.043 37.342-59.225 10.394-16.29 16.706-35.225 17.537-54.576.491-11.263-2.154-22.337-4.535-33.26-4.082-15.194-8.391-30.765-17.121-44.031-3.326-5.216-9.033-10.28-15.685-8.542-13.644 3.137-24.038 13.455-33.562 23.131-11.187 11.074-16.743 27.024-16.517 42.633-.529 19.465 5.367 38.287 8.088 57.373 2.268 20.485-4.573 40.781-15.118 58.054-7.937 1.436-16.365-1.096-24.529-.831-6.992-.34-13.871 1.134-20.863 1.209-5.669-15.609-6.917-32.428-5.14-48.832 3.817-23.698 15.534-45.581 17.046-69.694.454-8.617-.756-17.386-4.346-25.285-2.986-6.765-7.748-12.548-12.132-18.444-6.312-7.446-13.342-15.307-22.942-18.293-6.387-2.419-12.283 2.306-16.592 6.463-10.809 11.187-18.368 25.02-25.058 38.929-6.123 12.208-9.978 25.625-10.091 39.383 1.172 17.386 4.535 34.809 11.603 50.835 7.861 20.485 19.2 39.345 30.161 58.28.831 1.323 1.663 3.439.189 4.687-10.431 11.187-17.65 24.832-24.869 38.211-7.181-2.986-15.836-4.309-22.866-.151 3.364 3.061 5.291 7.332 4.498 11.943-24.567 1.587-21.619 9.865-21.921 13.039 8.353-1.89 9.676-3.364 15.118 4.724-7.03 3.137-15.496 6.992-17.159 15.42 3.704-1.285 7.748-2.154 11.49-.491 3.402 1.701 6.69 4.724 6.917 8.769.076 2.419-.378 6.463-.529 9.033 19.2 8.542 61.757 14.513 111.232 14.513 39.95 0 75.439-3.893 97.739-9.902z"
          fill="#0cf" class="J K L"/>
    <g class="M J K L">
        <path d="M122.23 257.47c24.302 0 43.994 19.54 43.994 43.654 0 4.8-.756 9.449-2.23 13.757-34.356-.491-64.781-3.855-85.493-8.92-.151-1.587-.265-3.175-.265-4.838 0-24.113 19.691-43.654 43.994-43.654z"
              fill="#00aad4"/>
        <path d="M127.446 269.942c17.839 0 32.315 14.476 32.315 32.315a32.16 32.16 0 0 1-2.532 12.51c-23.017-.605-44.069-2.494-61.266-5.291-.529-2.343-.832-4.762-.832-7.219 0-17.839 14.476-32.315 32.315-32.315z"
              fill="#fff"/>
        <path d="M132.246 284.38c10.961 0 19.88 8.92 19.88 19.88 0 3.742-1.058 7.257-2.835 10.243-12.624-.491-24.529-1.398-35.414-2.608-.983-2.343-1.512-4.913-1.512-7.635 0-10.961 8.882-19.88 19.88-19.88z"
              fill="#5d4a8f"/>
        <path d="M133.342 292.015c6.425 0 11.641 5.178 11.641 11.603a11.62 11.62 0 0 1-6.312 10.356c-4.12-.227-8.088-.529-11.981-.832-2.986-2.117-4.951-5.594-4.951-9.524a11.61 11.61 0 0 1 11.603-11.603z"
              fill="#141414"/>
        <path d="M149.14 293.829l-15.798 9.789 9.751-16.025c3.553 1.663 4.649 3.477 6.047 6.236z" fill="#fefefe"/>
    </g>
    <g fill="#00aad4" class="J K L">
        <path d="M115.313 93.174c6.009 19.313-.68 31.219 3.288 49.172 2.041 14.022 7.861 27.099 13.38 40.063.756 2.532-1.663 5.254-4.271 4.12-4.346-6.841-8.05-14.098-10.885-21.694-6.954-14.589-9.94-30.652-12.397-46.45-3.175-5.405-6.161-48.643 10.885-25.209zm130.923-.454c11.641-4.006 4.46 25.172 4.044 28.384-5.82 21.128-15.836 40.781-27.137 59.414-2.192 2.835-3.742 6.236-6.312 8.769-2.759.756-4.006-3.402-2.608-5.329 5.556-11.868 12.283-23.206 16.403-35.679 4.649-14.4 7.672-49.361 15.609-55.559z"/>
        <path d="M223.181 257.47c-24.302 0-43.994 19.54-43.994 43.654 0 4.8.794 9.449 2.23 13.757l6.765-.151c-1.625-3.817-2.494-8.05-2.494-12.472 0-17.839 14.438-32.315 32.277-32.315s32.315 14.476 32.315 32.315c0 2.457-.265 4.876-.794 7.181 6.387-1.058 12.208-2.23 17.424-3.515.189-1.587.265-3.175.265-4.8 0-24.113-19.691-43.654-43.994-43.654z"
              class="M"/>
    </g>
    <path d="M217.965 269.942c-17.839 0-32.277 14.476-32.277 32.315 0 4.422.869 8.655 2.494 12.472l7.975-.227c-1.814-2.986-2.835-6.501-2.835-10.243 0-10.961 8.882-19.88 19.88-19.88 3.25 0 6.35.794 9.071 2.23h0c3.137.907 6.009 3.817 7.408 6.576h0c2.154 3.175 3.364 6.992 3.364 11.074 0 2.683-.529 5.254-1.512 7.635a377.48 377.48 0 0 0 17.953-2.457c.529-2.306.794-4.724.794-7.181 0-17.839-14.476-32.315-32.315-32.315z"
          fill="#fff" class="J K L M"/>
    <path d="M213.203 284.38c-10.998 0-19.88 8.92-19.88 19.88 0 3.742 1.02 7.257 2.835 10.243l10.583-.529c-3.742-1.928-6.312-5.858-6.312-10.356 0-6.425 5.216-11.603 11.641-11.603a11.67 11.67 0 0 1 6.009 1.663l4.195-7.068c-2.721-1.436-5.82-2.23-9.071-2.23zm18.331 27.515c.983-2.381 1.512-4.951 1.512-7.635 0-4.082-1.209-7.899-3.364-11.074l-7.559 4.611c.983 1.739 1.55 3.704 1.55 5.82 0 3.931-1.928 7.408-4.876 9.487 4.384-.34 8.655-.756 12.737-1.209z"
          fill="#5d4a8f" class="J K L M"/>
    <path d="M212.069 292.015c-6.425 0-11.641 5.178-11.641 11.603 0 4.498 2.57 8.428 6.312 10.356l12.057-.869c2.948-2.079 4.876-5.556 4.876-9.487 0-2.117-.567-4.082-1.55-5.82-6.198 3.742-10.054 5.82-10.054 5.82l6.009-9.94a11.67 11.67 0 0 0-6.009-1.663z"
          fill="#141414" class="J K L M"/>
    <path d="M230.627 292.695c-11.187 6.954-18.746 11.112-18.746 11.112l10.885-18.142c3.326.983 6.387 4.082 7.861 7.03z"
          fill="#fefefe" class="J K L M"/>
    <path d="M292.12 259.662c32.882 8.315 52.876 13.72 52.876 32.844 0 19.087-77.216 49.323-172.498 49.323S0 317.716 0 292.506c0-11.943 17.272-22.791 45.543-30.917v1.02c8.353-1.89 9.676-2.986 15.118 5.102-7.03 3.137-14.967 6.917-17.159 15.043 3.704-1.285 7.861-1.701 11.565-.076.151.076-4.611 4.649-4.611 6.765 0 3.628 3.931 7.106 10.923 10.243v.378c19.2 8.542 61.757 14.513 111.232 14.513 39.95 0 75.439-3.893 97.739-9.902 4.384-1.285 8.542-2.646 12.359-4.157a42.06 42.06 0 0 0 5.216-2.532l-.038-.378c4.422-2.532 6.841-5.405 6.841-8.164 0-2.797-1.89-5.178-5.82-7.597 2.419-3.024 6.274-2.91 10.054-3.175-1.625-3.628-3.704-7.143-7.446-8.957-3.099-1.739-6.539-1.701-9.978-1.965 2.117-3.213 4.838-7.143 8.882-7.748.378-.189 1.285-.189 1.701-.34z"
          fill="#43a047" class="J K L M"/>
    <path d="M234.737 364.274H95.904v121.479h156.187V364.274zm-121.479 17.354h34.708v17.354h-34.708zm0 34.708h34.708v17.354h-34.708zm0 34.708h34.708v17.354h-34.708zm121.479 17.354H165.32v-17.354h69.417zm0-34.708H165.32v-17.354h69.417zm0-34.708H165.32v-17.354h69.417z"
          fill="#e8f5e9"/>
    <defs/>
</svg>
